<svg xmlns="http://www.w3.org/2000/svg" height="55" viewBox="0 0 128 128" width="55">
    <path d="M125.084 18.473c-3.692-6.63-15.041-7.352-25.348-1.612a31.325 31.325 0 0 0-7.383 5.663 31.61 31.61 0 0 1 15.052 20.842 32.421 32.421 0 0 0 5.7-2.5c10.307-5.736 15.67-15.766 11.979-22.393zm-122.168 0c3.692-6.63 15.04-7.352 25.348-1.612a31.345 31.345 0 0 1 7.383 5.663A31.61 31.61 0 0 0 20.6 43.366a32.421 32.421 0 0 1-5.7-2.5C4.588 35.13-.775 25.1 2.916 18.473z"
          fill="#ffbe40"/>
    <path d="M108.07 49.82v27.56a19.583 19.583 0 0 1-6.04 14.15l-2.18 2.09a10.9 10.9 0 0 1-7.53 3.02h-4.96a12.869 12.869 0 0 0 1.14-5.31v-.4a8.7 8.7 0 0 0-8.71-8.71h-7.22v-1.36a5.441 5.441 0 0 0-5.44-5.45h-6.26a5.441 5.441 0 0 0-5.44 5.45v1.36h-7.22a8.7 8.7 0 0 0-8.71 8.71v.4a12.869 12.869 0 0 0 1.14 5.31h-4.96a10.9 10.9 0 0 1-7.53-3.02l-2.18-2.09a19.583 19.583 0 0 1-6.04-14.15V49.82a31.573 31.573 0 0 1 31.58-31.57h24.98a31.573 31.573 0 0 1 31.58 31.57z"
          fill="#ffdd46"/>
    <path d="M75.569 104.264A12.918 12.918 0 0 1 64 97.083a12.906 12.906 0 0 1-15.311 6.626v.416a10.888 10.888 0 0 0 10.888 10.888h8.846a10.888 10.888 0 0 0 10.888-10.888v-.416a12.915 12.915 0 0 1-3.742.555z"
          fill="#e2e2eb"/>
    <path d="M69.771 87.094L64 89.294l-5.771-2.2a4.355 4.355 0 0 1-2.8-4.069v-2.169a5.444 5.444 0 0 1 5.444-5.444h6.26a5.444 5.444 0 0 1 5.444 5.444v2.169a4.355 4.355 0 0 1-2.806 4.069z"
          fill="#98503d"/>
    <path d="M79.788 82.215h-7.214v.809a4.356 4.356 0 0 1-2.8 4.07L64 89.294l-5.771-2.2a4.356 4.356 0 0 1-2.8-4.07v-.809h-7.217a8.711 8.711 0 0 0-8.71 8.711v.408A12.922 12.922 0 0 0 64 97.083a12.922 12.922 0 0 0 24.5-5.749v-.408a8.711 8.711 0 0 0-8.712-8.711z"
          fill="#f4f4f7"/>
    <path d="M83.581 46.156a5.39 5.39 0 1 0 5.389 5.389 5.4 5.4 0 0 0-5.389-5.389zm-39.162 0a5.39 5.39 0 1 0 5.39 5.389 5.4 5.4 0 0 0-5.39-5.389zm22.41-7.356L64 41.385 61.171 38.8a5.954 5.954 0 0 1-1.935-4.4V18.247h9.527V34.4a5.956 5.956 0 0 1-1.934 4.4zm29.309-13.687a31.421 31.421 0 0 0-19.051-6.85 10.2 10.2 0 1 0 19.051 6.85zm9.287 39.63a7.269 7.269 0 0 0 2.643-.5v-13.6a7.3 7.3 0 1 0-2.643 14.1zm2.643 9.806a9.686 9.686 0 0 0-6.844 17.751l.8-.768a19.6 19.6 0 0 0 6.043-14.154zM31.862 25.113a31.419 31.419 0 0 1 19.051-6.85 10.2 10.2 0 1 1-19.051 6.85zm-9.288 39.63a7.268 7.268 0 0 1-2.642-.5v-13.6a7.3 7.3 0 1 1 2.642 14.1zm-2.642 9.806A9.686 9.686 0 0 1 26.776 92.3l-.8-.768a19.6 19.6 0 0 1-6.042-14.154z"
          fill="#515165"/>
    <path d="M126.206 22.227c-2.668-4.771-13.01-4.083-23.108 1.54a43.061 43.061 0 0 0-4.876 3.159 31.52 31.52 0 0 1 9.178 16.435 32.343 32.343 0 0 0 5.543-2.407q1.215-.685 2.348-1.421c7.185-4.755 11.402-11.608 10.915-17.306zm-124.412 0c2.668-4.771 13.01-4.083 23.108 1.54a43.061 43.061 0 0 1 4.876 3.159A31.513 31.513 0 0 0 20.6 43.361a32.343 32.343 0 0 1-5.543-2.407q-1.215-.685-2.348-1.421C5.524 34.778 1.307 27.925 1.794 22.227zM94.53 46.91a1.749 1.749 0 0 1-1.63 1.87l-14.62.99a5.12 5.12 0 0 0-3.52 8.46l15.06 17.33a1.746 1.746 0 0 1 .43 1.15v19.93h-2.89a12.869 12.869 0 0 0 1.14-5.31v-.4a8.667 8.667 0 0 0-1.75-5.24v-8.32L72.12 60.53a8.62 8.62 0 0 1 5.92-14.25l14.63-.99a1.732 1.732 0 0 1 1.86 1.62zm-36.54 7.97a8.62 8.62 0 0 1-2.11 5.65L41.25 77.37v8.32a8.667 8.667 0 0 0-1.75 5.24v.4a12.869 12.869 0 0 0 1.14 5.31h-2.89V76.71a1.746 1.746 0 0 1 .43-1.15l15.06-17.33a5.12 5.12 0 0 0-3.52-8.46l-14.62-.99a1.749 1.749 0 1 1 .23-3.49l14.63.99a8.644 8.644 0 0 1 8.03 8.6z"
          fill="#ff9f40"/>
    <path d="M69.681 113.178a9.348 9.348 0 0 1-1.258.085h-.548a1.75 1.75 0 0 0 0 3.5h.548a12.8 12.8 0 0 0 1.735-.118 1.75 1.75 0 1 0-.477-3.467zM126.9 28.606a14.965 14.965 0 0 0 1.085-5.68 11.179 11.179 0 0 0-1.368-5.3c-2.085-3.744-6.208-6-11.61-6.34a29.946 29.946 0 0 0-16.117 4.05 33.27 33.27 0 0 0-6.822 5.04A33.347 33.347 0 0 0 76.493 16.5H51.507a33.354 33.354 0 0 0-15.571 3.874 33.237 33.237 0 0 0-6.821-5.04A29.986 29.986 0 0 0 13 11.281c-5.4.344-9.525 2.6-11.61 6.34a11.168 11.168 0 0 0-1.37 5.305C.294 33.25 9.635 40.994 18.608 44.519a33.5 33.5 0 0 0-.426 5.3v27.559a21.016 21.016 0 0 0 .111 2.161A21.463 21.463 0 0 0 24.764 92.8l2.177 2.085a12.58 12.58 0 0 0 8.742 3.511h3.883a14.76 14.76 0 0 0 7.414 6.561 12.645 12.645 0 0 0 12.6 11.81 1.75 1.75 0 0 0 0-3.5 9.155 9.155 0 0 1-8.966-7.364 18.164 18.164 0 0 0 1.82.115A14.574 14.574 0 0 0 64 100.36a14.574 14.574 0 0 0 11.569 5.654c.439 0 .877-.027 1.314-.067l.322-.03c.061-.007.122-.01.183-.018a9.094 9.094 0 0 1-1.013 2.732 1.75 1.75 0 1 0 3.043 1.728 12.609 12.609 0 0 0 1.59-5.4 14.764 14.764 0 0 0 7.426-6.565h3.883a12.58 12.58 0 0 0 8.742-3.511l2.177-2.085a21.449 21.449 0 0 0 6.582-15.418V49.823a33.378 33.378 0 0 0-.427-5.3c7.455-2.9 14.45-8.354 17.509-15.917zm-2.552-3.789c-1.587 7.667-8.662 13.333-15.694 16.234a33.586 33.586 0 0 0-7.735-13.892c.979-.66 2-1.284 3.036-1.863 9.571-5.331 18.3-5.569 20.537-2.512a10.777 10.777 0 0 1-.149 2.033zm-18.025 38.1a5.336 5.336 0 0 1-.893.074 5.55 5.55 0 1 1 0-11.1 5.336 5.336 0 0 1 .893.074zm-28.1-42.863a29.67 29.67 0 0 1 15.9 5.727 8.453 8.453 0 0 1-16.392-2.908 8.321 8.321 0 0 1 .484-2.817zm22.373-1.666a26.49 26.49 0 0 1 14.192-3.616 11.422 11.422 0 0 1 7.563 2.969c-5.087-1.194-12.607.324-20.1 4.5a44.832 44.832 0 0 0-3.888 2.459 34.719 34.719 0 0 0-3.191-2.466 29.98 29.98 0 0 1 5.416-3.844zM67.014 20v14.4a4.215 4.215 0 0 1-1.367 3.1L64 39.013l-1.647-1.507a4.215 4.215 0 0 1-1.367-3.1V20zm-17.229.059a8.321 8.321 0 0 1 .488 2.819 8.453 8.453 0 0 1-16.392 2.908 29.67 29.67 0 0 1 15.904-5.73zM22.575 51.9a5.55 5.55 0 1 1 0 11.1 5.336 5.336 0 0 1-.893-.074V51.971a5.336 5.336 0 0 1 .893-.071zM26.933 90a18.305 18.305 0 0 1-5.251-13.86A7.939 7.939 0 0 1 26.933 90zM13.22 14.774q.609-.037 1.232-.038a27.2 27.2 0 0 1 12.96 3.654 29.98 29.98 0 0 1 5.416 3.84 34.719 34.719 0 0 0-3.191 2.47 44.832 44.832 0 0 0-3.884-2.458 1.75 1.75 0 0 0-1.7 3.057 40.69 40.69 0 0 1 3.036 1.864 33.586 33.586 0 0 0-7.735 13.892c-7.5-3.137-15.6-9.618-15.838-18.269 1.525-2.1 5.917-2.582 11.377-1.2a1.75 1.75 0 0 0 .857-3.393 21.843 21.843 0 0 0-10.032-.507 11.5 11.5 0 0 1 7.502-2.912zm64.71 87.483a12.147 12.147 0 0 1-2.361.257 11.122 11.122 0 0 1-10-6.211 1.749 1.749 0 0 0-3.132 0 11.122 11.122 0 0 1-10 6.211 11.28 11.28 0 0 1-11.185-11.588 6.968 6.968 0 0 1 6.96-6.961h5.538a6.234 6.234 0 0 0 3.856 4.763l5.77 2.2a1.741 1.741 0 0 0 1.247 0l5.771-2.2a6.236 6.236 0 0 0 3.856-4.763h5.538a6.969 6.969 0 0 1 6.96 6.961 11.5 11.5 0 0 1-.951 4.9 11.212 11.212 0 0 1-7.867 6.431zm-20.754-21.4a3.7 3.7 0 0 1 3.694-3.693h6.26a3.7 3.7 0 0 1 3.694 3.693v2.169a2.62 2.62 0 0 1-1.677 2.435L64 87.421l-5.148-1.962a2.621 2.621 0 0 1-1.676-2.435zm32.636 14.035a16.618 16.618 0 0 0 .436-3.966V76.712a1.745 1.745 0 0 0-.429-1.147L74.762 58.234a5.117 5.117 0 0 1 3.516-8.461l.242-.016a5.31 5.31 0 0 0-.329 1.788 5.39 5.39 0 1 0 10.779 0 5.32 5.32 0 0 0-.62-2.456l4.554-.31a1.75 1.75 0 1 0-.237-3.492l-14.626.994a8.617 8.617 0 0 0-5.921 14.248l14.628 16.837v5.773a10.4 10.4 0 0 0-6.96-2.674h-5.474a7.259 7.259 0 0 0-7.184-6.8h-6.26a7.26 7.26 0 0 0-7.184 6.8h-5.474a10.4 10.4 0 0 0-6.96 2.674v-5.773L55.88 60.529a8.617 8.617 0 0 0-5.921-14.248l-14.626-.994a1.75 1.75 0 1 0-.237 3.492l4.554.31a5.32 5.32 0 0 0-.62 2.456 5.39 5.39 0 1 0 10.779 0 5.31 5.31 0 0 0-.329-1.788l.243.016a5.117 5.117 0 0 1 3.515 8.461L38.181 75.565a1.745 1.745 0 0 0-.429 1.147v14.214a16.567 16.567 0 0 0 .436 3.966h-2.505a9.1 9.1 0 0 1-6.242-2.469 11.342 11.342 0 0 0 3.644-8.336 11.457 11.457 0 0 0-11.4-11.445v-6.2a8.856 8.856 0 0 0 .893.047 9.05 9.05 0 1 0 0-18.1q-.432 0-.858.042a29.715 29.715 0 0 1 9.36-20.316A11.949 11.949 0 0 0 53.415 20h4.071v14.4a7.728 7.728 0 0 0 2.5 5.685l2.829 2.588a1.749 1.749 0 0 0 2.362 0l2.829-2.588a7.728 7.728 0 0 0 2.5-5.685V20h4.071a11.836 11.836 0 0 0-.358 2.878 11.953 11.953 0 0 0 22.695 5.248 29.806 29.806 0 0 1 9.361 20.316q-.427-.042-.858-.042a9.05 9.05 0 1 0 0 18.1 8.856 8.856 0 0 0 .893-.047v6.2a11.457 11.457 0 0 0-11.4 11.445 11.342 11.342 0 0 0 3.644 8.336 9.1 9.1 0 0 1-6.242 2.469zm16.506-17.514A18.018 18.018 0 0 1 101.067 90a7.939 7.939 0 0 1 5.251-13.861z"/>
</svg>