<svg xmlns="http://www.w3.org/2000/svg" height="50" viewBox="0 0 64 64" width="50">
    <g fill="#fcd770">
        <path d="M62 35.95v2.1c0 3.54-1.48 6.9-4.05 9.32l-3.89-.59A13.39 13.39 0 0 0 56 39.84v-3.68c0-2.07-.48-4.08-1.36-5.88a12.73 12.73 0 0 0-2.63-3.61l.01-.01c.56-1.02 1.63-1.66 2.82-1.66.69 0 1.36.22 1.92.63 3.3 2.44 5.24 6.26 5.24 10.32z"/>
        <path d="M50.84 25.64c.42.32.82.66 1.17 1.03a12.73 12.73 0 0 1 2.63 3.61c.88 1.8 1.36 3.81 1.36 5.88v3.68a13.39 13.39 0 0 1-1.94 6.94l-9.38-1.44v-.01a20.99 20.99 0 0 1-.68-5.3v-4.06a21.29 21.29 0 0 1 .41-4.14c.49.11 1.02.17 1.59.17 2.21 0 4-.9 4-2 0-.71-.74-1.33-1.85-1.68l.3-3.28c.16-.03.33-.04.5-.04.68 0 1.35.23 1.89.64zm-12.07-.21a3.17 3.17 0 0 1 1.25 1.29v.01C37.47 29.18 36 32.58 36 36.16v3.68c0 1.47.25 2.91.72 4.27l-5.61-.86c-.72-1.62-1.11-3.38-1.11-5.2v-2.1c0-.75.07-1.5.2-2.23.04-.21.08-.42.13-.63.68-2.95 2.4-5.6 4.91-7.46.56-.41 1.23-.63 1.92-.63a3.18 3.18 0 0 1 1.61.43z"/>
        <path d="m43.55 25.02.3 3.3c-1.11.35-1.85.97-1.85 1.68 0 .82.99 1.52 2.41 1.83-.27 1.36-.41 2.75-.41 4.14v4.06c0 1.8.23 3.57.68 5.3l-6.28-.96-1.68-.26c-.47-1.36-.72-2.8-.72-4.27v-3.68c0-3.58 1.47-6.98 4.02-9.43v-.01c.4-.39.82-.75 1.27-1.08.56-.41 1.24-.64 1.94-.64.11 0 .21.01.31.02z"/>
    </g>
    <path d="M50 30c0 1.1-1.79 2-4 2-.57 0-1.1-.06-1.59-.17C42.99 31.52 42 30.82 42 30c0-.71.74-1.33 1.85-1.68l-.3-3.3-.54-5.89c-.01-.09-.01-.17-.01-.26 0-1.59 1.28-2.87 2.87-2.87h.26c.79 0 1.51.32 2.03.84s.84 1.24.84 2.03l-.01.26-.54 5.91-.3 3.28c1.11.35 1.85.97 1.85 1.68z"
          fill="#cf9e76"/>
    <path d="M23.91 6.13c.35-.08.72-.13 1.09-.13a4.98 4.98 0 0 1 4 2l-.02.1c-.32-.07-.64-.1-.98-.1a4.99 4.99 0 0 0-4.6 3.04c-.13-.01-.26-.04-.4-.04-2.51 0-4.57 1.86-4.93 4.27C15.15 16.11 13 18.8 13 22c0 2.73 1.56 5.08 3.84 6.24A4.94 4.94 0 0 0 16 31c0 1.78.94 3.33 2.34 4.22-.21.55-.34 1.15-.34 1.78 0 2.76 2.24 5.03 5 5.03l-.76-.03H22a9.93 9.93 0 0 0-5.31 1.53L14 36c-2.76 0-5-2.24-5-5 0-.63.13-1.23.34-1.78C7.94 28.33 7 26.78 7 25a4.94 4.94 0 0 1 .84-2.76C5.56 21.08 4 18.73 4 16c0-3.2 2.15-5.89 5.07-6.73C9.43 6.86 11.49 5 14 5c.14 0 .27.03.4.04A4.99 4.99 0 0 1 19 2c2.46 0 4.5 1.78 4.91 4.13z"
          fill="#8cc152"/>
    <g fill="#b4dd7f">
        <path d="M37.56 20.5A4.97 4.97 0 0 1 39 24c0 .47-.07.93-.19 1.36l-.04.07a3.18 3.18 0 0 0-1.61-.43c-.69 0-1.36.22-1.92.63-2.51 1.86-4.23 4.51-4.91 7.46l-.13.63c-.13.73-.2 1.48-.2 2.23v2.1c0 1.82.39 3.58 1.11 5.2l-7.35-1.13-.76-.09c-2.76 0-5-2.27-5-5.03 0-.63.13-1.23.34-1.78C16.94 34.33 16 32.78 16 31a4.94 4.94 0 0 1 .84-2.76C14.56 27.08 13 24.73 13 22c0-3.2 2.15-5.89 5.07-6.73C18.43 12.86 20.49 11 23 11c.14 0 .27.03.4.04A4.99 4.99 0 0 1 28 8c.34 0 .66.03.98.1 2.01.4 3.58 2 3.93 4.03.35-.08.72-.13 1.09-.13 2.76 0 5 2.24 5 5a4.97 4.97 0 0 1-1.44 3.5zM6.8 50h5.4a10.05 10.05 0 0 0 0 4H6.8 4c-.55 0-1.05-.22-1.41-.59C2.22 53.05 2 52.55 2 52c0-1.1.9-2 2-2z"/>
        <path d="M7.19 46.04l5.95 1.33c-.43.82-.75 1.7-.94 2.63H6.8c-.99 0-1.8-.81-1.8-1.8v-.4c0-.99.81-1.8 1.8-1.8.13 0 .26.01.39.04zm5.95 10.59l-5.95 1.33c-.13.03-.26.04-.39.04-.99 0-1.8-.81-1.8-1.8v-.4c0-.99.81-1.8 1.8-1.8h5.4c.19.93.51 1.81.94 2.63z"/>
    </g>
    <path d="M60.88 48.96c-.71-.82-1.7-1.4-2.83-1.57l-.1-.02-3.89-.59-9.38-1.44v-.01l-6.28-.96-1.68-.26-5.61-.86-7.35-1.13-.76-.09-.76-.03H22a9.93 9.93 0 0 0-5.31 1.53 10.01 10.01 0 0 0-3.55 3.84c-.43.82-.75 1.7-.94 2.63a10.05 10.05 0 0 0 0 4c.19.93.51 1.81.94 2.63.47.9 1.08 1.73 1.79 2.44A9.97 9.97 0 0 0 22 62h.24a9.83 9.83 0 0 0 1.52-.12l14.64-2.25 19.65-3.02C60.32 56.26 62 54.3 62 52a4.68 4.68 0 0 0-1.12-3.04z"
          fill="#ff826e"/>
    <path d="M63 35.949c0-4.354-2.111-8.512-5.647-11.122-.721-.534-1.615-.827-2.516-.827a4.21 4.21 0 0 0-2.961 1.218c-.145-.121-.277-.254-.427-.369-.555-.424-1.221-.676-1.905-.78l.441-4.849a4.08 4.08 0 0 0 .015-.35c0-2.134-1.736-3.87-3.87-3.87h-.26C43.736 15 42 16.736 42 18.87c0 .117.005.234.016.351l.443 4.87c-.634.12-1.247.365-1.765.751-.179.134-.338.288-.51.429a4.06 4.06 0 0 0-.28-.261c.057-.333.096-.67.096-1.01a5.95 5.95 0 0 0-1.13-3.5C39.604 19.485 40 18.271 40 17c0-3.424-2.897-6.199-6.349-5.989-.642-1.84-2.139-3.227-3.979-3.762-1.218-1.519-3.054-2.362-5.021-2.238A5.98 5.98 0 0 0 19 1a5.99 5.99 0 0 0-5.198 3.003 6.03 6.03 0 0 0-5.593 4.504C5.113 9.662 3 12.659 3 16c0 2.679 1.318 5.128 3.499 6.608a5.95 5.95 0 0 0 1.674 6.998A5.79 5.79 0 0 0 8 31a6.01 6.01 0 0 0 5.28 5.957l2.212 6.195c-1.133.835-2.098 1.88-2.841 3.08l-5.239-1.164a2.71 2.71 0 0 0-.61-.068C5.257 45 4 46.257 4 47.802v.396a2.77 2.77 0 0 0 .131.802H4c-1.654 0-3 1.346-3 3s1.346 3 3 3h.131a2.77 2.77 0 0 0-.131.802v.396C4 57.743 5.257 59 6.802 59c.206 0 .411-.022.608-.067l5.241-1.165C14.592 60.902 18.051 63 22 63h.235c.556 0 1.119-.043 1.672-.128l34.291-5.275C60.98 57.168 63 54.815 63 52c0-2.251-1.303-4.188-3.243-5.101C61.829 44.424 63 41.284 63 38.051zm-12.767-9.511C53.218 28.72 55 32.355 55 36.164v3.673c0 2.05-.511 4.057-1.474 5.848l-8.019-1.234A19.94 19.94 0 0 1 45 40.03v-4.06c0-1.008.101-2.015.254-3.013.245.021.489.043.746.043 2.851 0 5-1.29 5-3 0-.944-.653-1.782-1.784-2.332l.147-1.618c.312.063.612.189.87.388zM45.87 17h.261c1.031 0 1.87.839 1.87 1.87a1.6 1.6 0 0 1-.008.17l-.908 9.987.763.245c.876.28 1.152.649 1.152.728 0 .249-1.064 1-3 1s-3-.751-3-1c0-.079.276-.448 1.152-.729l.763-.245-.908-9.986a1.95 1.95 0 0 1-.007-.17c0-1.031.839-1.87 1.87-1.87zm-3.23 9.083l.144 1.585C41.653 28.218 41 29.056 41 30c0 1.102.899 2.023 2.296 2.543-.179 1.135-.296 2.281-.296 3.427v4.06c0 1.374.132 2.746.388 4.095l-5.895-.907A12.04 12.04 0 0 1 37 39.836v-3.673c0-3.803 1.828-7.437 4.89-9.719.223-.166.48-.288.75-.361zM31.833 42.347A11.63 11.63 0 0 1 31 38.051v-2.103c0-3.722 1.808-7.278 4.835-9.514.38-.28.852-.434 1.328-.434a2.21 2.21 0 0 1 1.567.65C36.372 29.234 35 32.628 35 36.164v3.673c0 1.031.123 2.051.346 3.051zm.094-30.046l.182 1.029 1.02-.227A3.98 3.98 0 0 1 34 13c2.206 0 4 1.794 4 4 0 1.051-.408 2.045-1.148 2.799l-.688.701.688.701C37.592 21.955 38 22.949 38 24c0 .03-.006.06-.006.091-.271-.054-.547-.091-.831-.091a4.26 4.26 0 0 0-2.516.826 13.94 13.94 0 0 0-4.225 5.079c-.379-1.18-.777-2.31-1.187-3.383.925-4.886 4.356-7.714 4.391-7.743L33 18l-.625-.781c-.139.111-2.844 2.32-4.363 6.305-2.081-4.778-4.045-7.869-4.171-8.065l-1.683 1.082c.027.041 1.552 2.44 3.327 6.259-2.991-1.126-6.39-.815-6.585-.795l.199 1.99c1.504-.151 5.764-.078 7.754 1.953.701 1.723 1.392 3.612 2.002 5.636C25.815 30.025 22.188 30 22 30v2c.047 0 4.499.03 7.134 2.125-.082.602-.134 1.21-.134 1.824v2.103c0 1.351.208 2.672.594 3.952l-5.687-.875c-.3-.046-.603-.077-.907-.099-2.206 0-4-1.808-4-4.029 0-.466.093-.944.275-1.423l.292-.765-.693-.438a3.98 3.98 0 0 1-1.206-5.583l.623-.936-1.002-.509C15.26 26.315 14 24.267 14 22c0-2.661 1.788-5.031 4.349-5.764l.621-.178.093-.639C19.348 13.47 21.041 12 23 12c.037 0 .073.008.109.013.07.01.141.019.212.024l.717.058.282-.662C24.951 9.955 26.395 9 28 9c1.938 0 3.589 1.388 3.927 3.301zM14.705 35H14c-2.206 0-4-1.794-4-4 0-.467.093-.945.275-1.422l.293-.765-.693-.438a3.98 3.98 0 0 1-1.207-5.583l.623-.936-1.002-.509C6.26 20.315 5 18.267 5 16c0-2.661 1.788-5.031 4.348-5.764l.621-.178.093-.639C10.348 7.47 12.041 6 14 6c.038 0 .075.008.112.013.068.009.136.018.206.024l.72.06.283-.665C15.951 3.955 17.395 3 19 3c1.938 0 3.589 1.388 3.927 3.301l.182 1.029 1.02-.227A3.98 3.98 0 0 1 25 7c.46 0 .897.101 1.315.247-1.47.43-2.736 1.406-3.513 2.756a6.03 6.03 0 0 0-5.593 4.504C14.113 15.662 12 18.659 12 22c0 2.679 1.318 5.128 3.499 6.608A5.95 5.95 0 0 0 15 31c0 1.8.8 3.473 2.173 4.607-.115.464-.173.93-.173 1.393 0 1.757.756 3.336 1.953 4.438a10.89 10.89 0 0 0-1.713.66zM6 48.198v-.396c0-.502.486-.889.977-.783l4.759 1.058c-.116.302-.22.609-.309.923H6.802C6.36 49 6 48.64 6 48.198zM3 52a1 1 0 0 1 1-1h2.802 4.248c-.029.33-.05.662-.05 1a11.01 11.01 0 0 0 .051 1H6.802 4a1 1 0 0 1-1-1zm3.975 4.981c-.474.102-.975-.282-.975-.783v-.396c0-.442.36-.802.802-.802h4.624a11.1 11.1 0 0 0 .309.923zM61 52a3.64 3.64 0 0 1-3.105 3.62l-34.29 5.275a9.02 9.02 0 0 1-1.37.105H22c-4.962 0-9-4.038-9-9s4.038-9 9-9h.235c.455 0 .916.035 1.369.104l34.29 5.275c1.8.278 3.106 1.8 3.106 3.621zm0-13.949c0 3.076-1.245 6.052-3.411 8.258l-1.987-.306C56.515 44.085 57 41.982 57 39.836v-3.673c0-3.554-1.354-6.965-3.68-9.553a2.21 2.21 0 0 1 1.517-.61 2.24 2.24 0 0 1 1.328.436C59.192 28.67 61 32.227 61 35.949zM21 47h2v10h-2zm8 0h2v10h-2zm8 0h2v10h-2zm8 2h2v6h-2zm8 1h2v4h-2z"/>
</svg>