<svg xmlns="http://www.w3.org/2000/svg" width="256" height="256"  viewBox="0 0 256 256">
    <path d="M108.528 230.413c-.274 0-.554-.018-.833-.055-3.435-.456-5.85-3.611-5.393-7.046l8.402-63.228a6.27 6.27 0 0 1 7.045-5.393c3.435.456 5.85 3.611 5.393 7.046l-8.402 63.228c-.419 3.154-3.114 5.448-6.212 5.448z"
          fill="#ff9f70"/>
    <path d="M108.528 232.413c-.37 0-.739-.024-1.1-.073a8.22 8.22 0 0 1-7.11-9.292l8.401-63.228c.291-2.19 1.417-4.137 3.17-5.48s3.932-1.924 6.123-1.631 4.136 1.417 5.479 3.173 1.923 3.929 1.631 6.119l-8.401 63.228c-.542 4.095-4.065 7.184-8.193 7.184zm8.382-75.778c-.934 0-1.834.304-2.587.88-.905.694-1.487 1.7-1.638 2.832l-8.401 63.228c-.15 1.132.148 2.254.843 3.161a4.25 4.25 0 0 0 2.832 1.64c2.401.322 4.493-1.373 4.799-3.674l8.401-63.229c.15-1.131-.148-2.254-.843-3.161s-1.699-1.489-2.831-1.639a4.28 4.28 0 0 0-.575-.038z"
          fill="#690589"/>
    <path d="M145.836 230.413c.274 0 .554-.018.833-.055 3.435-.456 5.85-3.611 5.393-7.046l-8.402-63.228a6.27 6.27 0 0 0-7.045-5.393c-3.435.456-5.85 3.611-5.393 7.046l8.402 63.228c.419 3.154 3.114 5.448 6.212 5.448z"
          fill="#ff9f70"/>
    <path d="M145.836 232.413c-4.128 0-7.65-3.089-8.194-7.185L129.24 162c-.292-2.19.288-4.364 1.631-6.119a8.22 8.22 0 0 1 5.48-3.173c2.197-.295 4.365.287 6.121 1.631a8.22 8.22 0 0 1 3.171 5.481l8.401 63.227a8.22 8.22 0 0 1-7.112 9.293c-.357.048-.726.073-1.096.073zm-8.382-75.779a4.28 4.28 0 0 0-.574.039 4.24 4.24 0 0 0-2.832 1.639 4.25 4.25 0 0 0-.843 3.161l8.401 63.228c.306 2.302 2.433 3.99 4.796 3.675a4.25 4.25 0 0 0 2.835-1.64c.694-.906.993-2.029.843-3.161l-8.401-63.228a4.25 4.25 0 0 0-1.639-2.833c-.752-.576-1.653-.88-2.586-.88z"
          fill="#690589"/>
    <g fill="#ff9f70">
        <path d="M161.192 167.4l-11.377-37.924c-.526-1.757-2.141-2.87-3.885-2.871v-.02h-37.495v.02c-1.745 0-3.358 1.115-3.885 2.872l-11.378 37.924c-.644 2.146.573 4.407 2.719 5.051a4.08 4.08 0 0 0 1.168.172 4.06 4.06 0 0 0 3.883-2.892l7.493-24.976v19.871h37.495v-19.87l7.492 24.974c.527 1.757 2.138 2.892 3.883 2.892a4.05 4.05 0 0 0 1.168-.172c2.146-.644 3.363-2.905 2.719-5.051z"/>
        <path d="M127.182 126.585c-7.254 0-13.134-5.88-13.134-13.134v-8.083c0-7.254 5.88-13.134 13.134-13.134s13.134 5.881 13.134 13.134v8.083c.001 7.253-5.88 13.134-13.134 13.134z"/>
    </g>
    <path d="M127.183 128.584c-8.346 0-15.135-6.789-15.135-15.134v-8.083c0-8.345 6.789-15.134 15.135-15.134s15.134 6.789 15.134 15.134v8.083c-.001 8.345-6.79 15.134-15.134 15.134zm0-34.351a11.15 11.15 0 0 0-11.135 11.134v8.083a11.15 11.15 0 0 0 11.135 11.134 11.15 11.15 0 0 0 11.134-11.134v-8.083a11.15 11.15 0 0 0-11.134-11.134z"
          fill="#690589"/>
    <path d="M145.93 164.627h-37.495c0 9.949 8.065 18.014 18.014 18.014h1.468c9.948 0 18.013-8.065 18.013-18.014z"
          fill="#f4efed"/>
    <path d="M127.916 184.641h-1.468c-11.035 0-20.014-8.979-20.014-20.014a2 2 0 0 1 2-2h37.496a2 2 0 0 1 2 2c.001 11.035-8.978 20.014-20.014 20.014zm-17.357-18.015c.987 7.89 7.736 14.014 15.89 14.014h1.468c8.153 0 14.903-6.124 15.891-14.014h-33.249z"
          fill="#690589"/>
    <path d="M100.27 167.401l11.377-37.924c.527-1.757 2.14-2.872 3.885-2.872v-.02h-7.098v.02c-1.745 0-3.358 1.115-3.885 2.872l-11.377 37.924c-.644 2.146.573 4.407 2.719 5.051a4.08 4.08 0 0 0 1.168.172c1.466 0 2.83-.808 3.543-2.107-.504-.92-.657-2.032-.332-3.116z"
          fill="#ffbd8e"/>
    <path d="M97.059 174.624a6.06 6.06 0 0 1-1.74-.256c-3.2-.961-5.021-4.344-4.062-7.542l11.378-37.924c.738-2.462 2.91-4.151 5.466-4.289a1.95 1.95 0 0 1 .335-.028h37.496a2.04 2.04 0 0 1 .342.029c2.554.141 4.723 1.83 5.458 4.289l11.378 37.923c.959 3.199-.862 6.582-4.061 7.541-.564.17-1.151.256-1.742.256-2.652 0-5.037-1.775-5.799-4.318l-3.576-11.921v6.243a2 2 0 0 1-2 2h-37.497a2 2 0 0 1-2-2v-6.244l-3.577 11.924c-.762 2.541-3.147 4.317-5.799 4.317zm11.653-46.04a1.94 1.94 0 0 1-.276.02c-.919 0-1.711.582-1.97 1.446l-11.378 37.925a2.06 2.06 0 0 0 1.379 2.561 2.1 2.1 0 0 0 2.559-1.378l7.493-24.977a2.01 2.01 0 0 1 2.206-1.404 2 2 0 0 1 1.71 1.979v17.871h33.496v-17.87a2 2 0 0 1 1.71-1.979c.98-.141 1.921.454 2.206 1.404l7.492 24.974a2.1 2.1 0 0 0 2.558 1.379 2.06 2.06 0 0 0 1.38-2.561l-11.379-37.924c-.258-.865-1.05-1.445-1.97-1.446-.095 0-.188-.007-.278-.02h-36.938zm7.835 30.135a2 2 0 0 1-2-2v-12.168a2 2 0 1 1 4 0v12.168a2 2 0 0 1-2 2z"
          fill="#690589"/>
</svg>