<svg xmlns="http://www.w3.org/2000/svg" width="256" height="256" viewBox="0 0 256 256">
    <path d="M156.499 226.685l-7.091-87.257-.023-.171v-15.269h-47.373v15.271l-.022.169-7.092 87.257c-.364 4.466 2.963 8.38 7.428 8.743a8.31 8.31 0 0 0 .666.027c4.182 0 7.732-3.214 8.077-7.456l5.709-70.241c.378-4.646 4.259-8.225 8.92-8.225s8.543 3.579 8.921 8.225l5.709 70.241c.345 4.242 3.894 7.456 8.077 7.456.22 0 .443-.009.666-.027 4.465-.363 7.791-4.278 7.428-8.743z"
          fill="#526faa"/>
    <path d="M166.635 128.677l-11.229-59.77c-.552-2.939-3.134-4.98-6.022-4.957v-.006h-47.372v.004a6.09 6.09 0 0 0-5.979 4.957l-11.229 59.77c-.621 3.303 1.554 6.483 4.856 7.103.379.071.757.105 1.13.105 2.869 0 5.424-2.039 5.972-4.962l5.249-27.941v21.006h47.372v-21.232l5.292 28.168c.549 2.923 3.102 4.962 5.972 4.962a6.14 6.14 0 0 0 1.13-.105c3.304-.619 5.479-3.799 4.858-7.102z"
          fill="#f4efed"/>
    <path d="M125.698 63.945c-9.165 0-16.594-7.429-16.594-16.594V37.139c0-9.165 7.429-16.594 16.594-16.594s16.594 7.429 16.594 16.594v10.212c0 9.164-7.429 16.594-16.594 16.594z"
          fill="#ff9f70"/>
    <g fill="#690589">
        <path d="M125.698 65.945c-10.253 0-18.594-8.341-18.594-18.594V37.139a18.62 18.62 0 0 1 18.594-18.594 18.62 18.62 0 0 1 18.595 18.594v10.212a18.62 18.62 0 0 1-18.595 18.594zm0-43.4c-8.047 0-14.594 6.547-14.594 14.594v10.212c0 8.047 6.547 14.594 14.594 14.594s14.595-6.547 14.595-14.594V37.139c0-8.047-6.547-14.594-14.595-14.594zm22.706 214.91c-5.224 0-9.647-4.082-10.07-9.293l-5.708-70.241c-.292-3.582-3.334-6.387-6.928-6.387a6.99 6.99 0 0 0-6.927 6.386l-5.71 70.241c-.445 5.484-5.302 9.708-10.896 9.26-5.56-.453-9.713-5.341-9.261-10.898l7.093-87.257c.002-.028.009-.086.016-.141v-15.136a2 2 0 0 1 2-2h47.372a2 2 0 0 1 2 2v15.133a2.36 2.36 0 0 1 .016.137l7.091 87.264a10.04 10.04 0 0 1-2.372 7.367c-1.749 2.058-4.194 3.312-6.887 3.531-.279.023-.556.034-.829.034zm-22.706-89.921c5.661 0 10.455 4.42 10.914 10.062l5.708 70.241c.27 3.317 3.211 5.866 6.589 5.597 1.626-.132 3.104-.89 4.162-2.134a6.07 6.07 0 0 0 1.434-4.452l-7.109-87.388a1.71 1.71 0 0 1-.011-.202v-13.269h-43.372v13.271a1.99 1.99 0 0 1-.011.204c-.003.036-.019.147-.024.183l-7.087 87.201a6.12 6.12 0 0 0 5.597 6.587 6.16 6.16 0 0 0 6.588-5.597l5.71-70.241a11.01 11.01 0 0 1 10.912-10.063z"/>
        <path d="M160.648 137.886c-3.883 0-7.222-2.773-7.938-6.593l-1.336-7.109a2 2 0 0 1-1.99 1.805h-47.371c-.993 0-1.817-.724-1.974-1.673l-1.311 6.977c-.716 3.82-4.055 6.593-7.938 6.593-.502 0-1.006-.047-1.5-.14a8.03 8.03 0 0 1-6.452-9.438l11.229-59.77c.707-3.767 3.971-6.515 7.792-6.586.051-.004.102-.006.153-.006h47.372c.055 0 .108.002.161.006a8.07 8.07 0 0 1 7.826 6.587l11.229 59.77a8.04 8.04 0 0 1-1.271 6.056c-1.219 1.782-3.06 2.983-5.182 3.382a8.19 8.19 0 0 1-1.499.139zm-11.261-37.13a2 2 0 0 1 1.964 1.631l5.292 28.168a4.08 4.08 0 0 0 4.006 3.331c.254 0 .51-.024.76-.071 1.073-.202 2.003-.809 2.619-1.709s.844-1.987.642-3.059l-11.229-59.77c-.362-1.932-2.044-3.326-4.005-3.326h-.051a1.92 1.92 0 0 1-.153-.006h-47.087a1.94 1.94 0 0 1-.132.004h-.001c-1.964 0-3.651 1.398-4.013 3.325L86.77 129.045c-.202 1.073.026 2.159.642 3.06s1.546 1.508 2.618 1.709c.251.047.507.071.761.071a4.08 4.08 0 0 0 4.006-3.331l5.25-27.941a2.01 2.01 0 0 1 2.151-1.622 2 2 0 0 1 1.814 1.991v19.006h43.372v-19.232a2 2 0 0 1 1.814-1.991 2.01 2.01 0 0 1 .189-.009z"/>
        <path d="M149.383 104.756c-.945 0-1.786-.673-1.965-1.635l-4.057-21.85a2.001 2.001 0 0 1 3.934-.731l4.057 21.85a2 2 0 0 1-1.602 2.332c-.123.023-.246.034-.367.034zm-47.368 0c-.121 0-.243-.011-.367-.034a2 2 0 0 1-1.602-2.332l4.056-21.85c.201-1.086 1.237-1.805 2.332-1.602a2 2 0 0 1 1.602 2.332l-4.056 21.85c-.179.963-1.02 1.636-1.965 1.636z"/>
    </g>
</svg>