<svg xmlns="http://www.w3.org/2000/svg" viewBox="0 0 256 256" width="256" height="256">
    <path d="M168.963 237.455c-2.24 0-4.056-1.816-4.056-4.056V123.55c0-2.24 1.816-4.056 4.056-4.056s4.056 1.816 4.056 4.056v109.849c.001 2.24-1.816 4.056-4.056 4.056z"
          fill="#f4efed"/>
    <path d="M168.964 239.455c-3.34 0-6.057-2.717-6.057-6.056V123.55c0-3.339 2.717-6.056 6.057-6.056s6.056 2.717 6.056 6.056v109.849c0 3.339-2.717 6.056-6.056 6.056zm0-117.961a2.06 2.06 0 0 0-2.057 2.056v109.849a2.06 2.06 0 0 0 2.057 2.056 2.06 2.06 0 0 0 2.056-2.056V123.55a2.06 2.06 0 0 0-2.056-2.056z"
          fill="#690589"/>
    <path d="M155.852 228.685l-6.097-75.023v-20.77h-44.208v20.769l-6.098 75.024c-.364 4.466 2.963 8.38 7.428 8.743a8.32 8.32 0 0 0 .667.027c4.182 0 7.732-3.214 8.077-7.456l5.463-67.213a6.59 6.59 0 0 1 13.136 0l5.463 67.213c.345 4.242 3.894 7.456 8.077 7.456.22 0 .443-.009.666-.027 4.463-.363 7.79-4.278 7.426-8.743z"
          fill="#526faa"/>
    <path d="M173.916 113.411h-10.99l-7.196-31.809a6.09 6.09 0 0 0-5.975-4.739v-.004h-44.208v.005c-2.781-.003-5.295 1.91-5.935 4.739l-10.478 46.315c-.741 3.277 1.315 6.535 4.592 7.276a6.06 6.06 0 0 0 1.349.152 6.09 6.09 0 0 0 5.929-4.743l4.544-20.084v22.374h44.208v-22.551l2.375 10.497c.628 2.773 3.092 4.741 5.935 4.741h15.851c3.36 0 6.084-2.724 6.084-6.084s-2.725-6.085-6.085-6.085z"
          fill="#fcc24c"/>
    <path d="M155.852 228.685l-6.097-75.023v-20.77h-6.084v20.77l6.097 75.023c.295 3.623-1.84 6.883-5.041 8.178a8.06 8.06 0 0 0 3.03.592l.666-.027c4.466-.363 7.793-4.278 7.429-8.743z"
          fill="#34518c"/>
    <path d="M149.645 81.602l6.302 27.858a5.07 5.07 0 0 0 4.945 3.951h2.033l-7.196-31.809a6.09 6.09 0 0 0-5.975-4.739v-.004h-6.084v.004c2.796-.021 5.332 1.899 5.975 4.739zm24.271 31.809h-6.084c3.36 0 6.084 2.724 6.084 6.084s-2.724 6.084-6.084 6.084h6.084c3.36 0 6.084-2.724 6.084-6.084s-2.724-6.084-6.084-6.084z"
          fill="#dea42e"/>
    <g fill="#690589">
        <path d="M147.758 239.455c-5.224 0-9.647-4.082-10.07-9.293l-5.462-67.213a4.62 4.62 0 0 0-4.575-4.218 4.62 4.62 0 0 0-4.574 4.218l-5.463 67.213c-.445 5.485-5.338 9.713-10.897 9.26s-9.712-5.341-9.26-10.898l6.091-74.943v-20.688a2 2 0 0 1 2-2h44.208a2 2 0 0 1 2 2v20.689l6.091 74.942a10.04 10.04 0 0 1-2.372 7.367 10.05 10.05 0 0 1-6.888 3.531c-.279.022-.557.033-.829.033zM127.65 154.73c4.44 0 8.201 3.467 8.562 7.894l5.462 67.213a6.14 6.14 0 0 0 6.589 5.597 6.07 6.07 0 0 0 4.162-2.134c1.058-1.244 1.566-2.826 1.435-4.453l-6.098-75.023c-.005-.054-.007-.108-.007-.162v-18.77h-40.208v18.769c0 .054-.002.108-.007.162l-6.098 75.024a6.12 6.12 0 0 0 5.597 6.587c3.363.267 6.318-2.28 6.588-5.597l5.463-67.213a8.64 8.64 0 0 1 8.56-7.894z"/>
        <path d="M95.074 137.345a8.14 8.14 0 0 1-1.791-.201c-2.104-.476-3.899-1.744-5.052-3.57s-1.524-3.992-1.049-6.098L97.66 81.162c.828-3.659 3.992-6.227 7.728-6.296l.159-.006h44.208l.122.003c3.713.037 6.981 2.666 7.803 6.298l6.844 30.25h9.393c4.458 0 8.084 3.626 8.084 8.084s-3.626 8.084-8.084 8.084h-15.852c-2.533 0-4.818-1.15-6.31-3.014v8.327a2 2 0 0 1-2 2h-44.208a2 2 0 0 1-2-2v-4.471l-.593 2.622a8.04 8.04 0 0 1-7.88 6.302zm10.468-58.481a4.11 4.11 0 0 0-3.979 3.18l-10.478 46.315a4.09 4.09 0 0 0 3.082 4.884c2.181.49 4.401-.942 4.886-3.083l4.543-20.084c.226-.994 1.165-1.657 2.173-1.546a2 2 0 0 1 1.778 1.988v20.374h40.208v-20.551a2 2 0 0 1 1.778-1.988c.996-.11 1.947.552 2.173 1.546l2.375 10.497a4.06 4.06 0 0 0 3.983 3.183h15.852a4.09 4.09 0 0 0 4.084-4.084 4.09 4.09 0 0 0-4.084-4.084h-10.99a2 2 0 0 1-1.951-1.559l-7.196-31.809a4.11 4.11 0 0 0-4.009-3.181c-.044 0-.088 0-.132-.003h-43.952c-.047.003-.11-.006-.141.005z"/>
    </g>
    <path d="M127.651 83.957a15.49 15.49 0 0 1-15.486-15.486v-9.53a15.49 15.49 0 0 1 15.486-15.486 15.49 15.49 0 0 1 15.486 15.486v9.53a15.49 15.49 0 0 1-15.486 15.486z"
          fill="#ff9f70"/>
    <path d="M127.65 85.957c-9.642 0-17.485-7.844-17.485-17.485v-9.53c0-9.642 7.844-17.485 17.485-17.485a17.51 17.51 0 0 1 17.486 17.485v9.53c.001 9.641-7.844 17.485-17.486 17.485zm0-40.5c-7.436 0-13.485 6.049-13.485 13.485v9.53c0 7.436 6.05 13.485 13.485 13.485s13.486-6.049 13.486-13.485v-9.53c.001-7.436-6.049-13.485-13.486-13.485z"
          fill="#690589"/>
</svg>