<svg xmlns="http://www.w3.org/2000/svg" width="16" height="16" viewBox="0 0 16 16" fill="none">
    <path fill-rule="evenodd"
          d="M12.749 8.624a5.22 5.22 0 0 0 .04-.624c0-.216-.016-.424-.048-.624l1.352-1.056a.33.33 0 0 0 .08-.408l-1.28-2.216c-.08-.144-.248-.192-.392-.144l-1.592.64c-.336-.256-.688-.464-1.08-.624l-.24-1.696a.32.32 0 0 0-.32-.272h-2.56a.31.31 0 0 0-.312.272l-.24 1.696c-.392.16-.752.376-1.08.624l-1.592-.64c-.144-.056-.312 0-.392.144l-1.28 2.216a.31.31 0 0 0 .08.408l1.352 1.056A4.02 4.02 0 0 0 3.189 8a4.02 4.02 0 0 0 .048.624L1.885 9.68a.33.33 0 0 0-.08.408l1.28 2.216c.08.144.248.192.392.144l1.592-.64c.336.256.688.464 1.08.624l.24 1.696c.032.16.16.272.32.272h2.56c.16 0 .296-.112.312-.272l.24-1.696c.392-.16.752-.376 1.08-.624l1.592.64c.144.056.312 0 .392-.144l1.28-2.216a.31.31 0 0 0-.08-.408l-1.336-1.056zM7.989 10.4a2.41 2.41 0 0 1-2.4-2.4 2.41 2.41 0 0 1 2.4-2.4 2.41 2.41 0 0 1 2.4 2.4 2.41 2.41 0 0 1-2.4 2.4z"
          fill="#2f80ed"/>
</svg>