<svg xmlns="http://www.w3.org/2000/svg" height="57" viewBox="0 0 60 42" width="57">
    <path d="M59 32a9 9 0 1 1-18 0 9 9 0 0 1 9-9c1.724-.005 3.413.492 4.86 1.43A8.98 8.98 0 0 1 59 32z" fill="#607d8b"/>
    <circle cx="50" cy="32" fill="#f5f5f5" r="5"/>
    <path d="M50 27c-.51.007-1.016.093-1.5.254a4.97 4.97 0 0 1 0 9.492 4.99 4.99 0 0 0 6.061-6.802A4.99 4.99 0 0 0 50 27z"
          fill="#cfd8dc"/>
    <path d="M21 31c0 .34-.02.67-.05 1a10 10 0 0 1-19.938-1.498A10 10 0 0 1 21 31z" fill="#607d8b"/>
    <circle cx="11" cy="31" fill="#f5f5f5" r="6"/>
    <path d="M11 25c-.506.003-1.01.07-1.5.2 2.642.685 4.487 3.07 4.487 5.8s-1.845 5.115-4.487 5.8a6 6 0 0 0 6.961-8.363A6 6 0 0 0 11 25z"
          fill="#cfd8dc"/>
    <path d="M54.86 24.43c-1.447-.938-3.136-1.435-4.86-1.43a9 9 0 0 0-8.06 5H31a3 3 0 0 0-3 3v5h-2c-1.103-.003-1.997-.897-2-2s-.899-1.992-2-2h-1.05l.05-1a10 10 0 0 0-15-8.66V20a3 3 0 0 1 3-3h3.66a3.01 3.01 0 0 0 2.23-.99l7.22-8.02A3.01 3.01 0 0 1 24.34 7H36.3c1.055-.003 2.033.552 2.57 1.46l4.26 7.08c.537.908 1.515 1.463 2.57 1.46h4.96c1.374.005 2.571.938 2.91 2.27z"
          fill="#f44335"/>
    <path d="M50.57 19.27l.969 3.874a8.83 8.83 0 0 1 3.321 1.286l-1.29-5.16c-.339-1.332-1.536-2.265-2.91-2.27h-3c1.374.005 2.571.938 2.91 2.27zM35.87 8.46l4.26 7.08c.537.908 1.515 1.463 2.57 1.46h3c-1.055.003-2.033-.552-2.57-1.46l-4.26-7.08c-.537-.908-1.515-1.463-2.57-1.46h-3c1.055-.003 2.033.552 2.57 1.46zM25 31v4.721A1.97 1.97 0 0 0 26 36h2v-5a3 3 0 0 1 3-3h-3a3 3 0 0 0-3 3zM8 21c-.672.007-1.343.082-2 .223v1.117a9.98 9.98 0 0 1 3.492-1.217C8.998 21.045 8.5 21.004 8 21zm39 2a9 9 0 0 0-8.06 5h3a9.01 9.01 0 0 1 6.56-4.863A8.98 8.98 0 0 0 47 23z"
          fill="#c81e1e"/>
    <path d="M41.94 28c-.62 1.242-.942 2.612-.94 4h-1.15a3 3 0 0 0-2.68 1.66l-.34.68A3 3 0 0 1 34.15 36H28v-5a3 3 0 0 1 3-3z"
          fill="#ffdf00"/>
    <path d="M38.94 28c-.62 1.242-.942 2.612-.94 4h-1.15a3 3 0 0 0-2.68 1.66l-.34.68A3 3 0 0 1 31.15 36h3a3 3 0 0 0 2.68-1.66l.34-.68A3 3 0 0 1 39.85 32H41c-.002-1.388.32-2.758.94-4z"
          fill="#fec108"/>
    <path d="M36.3 11.445l2.667 4A1 1 0 0 1 38.131 17H31a1 1 0 0 1-1-1v-4a1 1 0 0 1 1-1h4.465a1 1 0 0 1 .835.445z"
          fill="#00bcd4"/>
    <path d="M38.964 15.445l-2.667-4a1 1 0 0 0-.832-.445h-3a1 1 0 0 1 .832.445l2.667 4A1 1 0 0 1 35.131 17h3a1 1 0 0 0 .833-1.555z"
          fill="#00838f"/>
    <path d="M13 9a2 2 0 0 1-2 2H7a2 2 0 0 0-2 2v1a2 2 0 1 1-4 0V9a2 2 0 0 1 2-2h8a2 2 0 0 1 2 2z" fill="#f44335"/>
    <g fill="#c81e1e">
        <path d="M2 13v1a1.99 1.99 0 0 1-.5 1.31A1.99 1.99 0 0 0 5 14v-1a2 2 0 0 1 2-2H4a2 2 0 0 0-2 2zm9-6H8a2 2 0 1 1 0 4h3a2 2 0 1 0 0-4z"/>
        <circle cx="48" cy="3" r="2"/>
    </g>
    <g fill="#000">
        <path d="M60 32a9.99 9.99 0 0 0-4.261-8.176l-1.2-4.8A4.01 4.01 0 0 0 50.66 16H49V5.816a3 3 0 1 0-2 0V16h-1.3a1.97 1.97 0 0 1-1.713-.976L39.73 7.95A3.95 3.95 0 0 0 36.3 6H24.34c-1.133.001-2.213.481-2.973 1.321l-7.219 8.018A2.01 2.01 0 0 1 12.66 16h-1.229a9.14 9.14 0 0 1-2.274-4H11a3 3 0 1 0 0-6H3a3 3 0 0 0-3 3v5a3 3 0 1 0 6 0v-1a1 1 0 0 1 1-1h.116c.295 1.446.892 2.814 1.753 4.013A4 4 0 0 0 5 20v1.792C1.937 23.781.064 27.164.004 30.816S1.704 37.911 4.7 40H1a1 1 0 1 0 0 2h58a1 1 0 1 0 0-2h-3.025A9.98 9.98 0 0 0 60 32zM48 2a1 1 0 1 1 0 2 1 1 0 1 1 0-2zM4 13v1a1 1 0 1 1-2 0V9a1 1 0 0 1 1-1h8a1 1 0 1 1 0 2H7a3 3 0 0 0-3 3zm3 7a2 2 0 0 1 2-2h3.66c1.133-.001 2.213-.481 2.973-1.321l7.219-8.018A2.01 2.01 0 0 1 24.34 8H36.3a1.97 1.97 0 0 1 1.713.976l4.257 7.074A3.95 3.95 0 0 0 45.7 18h4.96c.916.002 1.715.625 1.94 1.513l.771 3.084A9.94 9.94 0 0 0 41.353 27H31a4 4 0 0 0-4 4v4h-1a1 1 0 0 1-1-1 3 3 0 0 0-3-3c.008-3.636-1.785-7.041-4.789-9.09A10.98 10.98 0 0 0 7 20.764zm33.051 11h-.2a3.98 3.98 0 0 0-3.578 2.211l-.341.684A1.99 1.99 0 0 1 34.146 35H29v-4a2 2 0 0 1 2-2h9.461a9.87 9.87 0 0 0-.41 2zM2 31a9 9 0 1 1 9 9c-4.968-.006-8.994-4.032-9-9zm15.305 9c2.358-1.655 3.973-4.168 4.5-7H22a1 1 0 0 1 1 1 3 3 0 0 0 3 3h8.146a3.98 3.98 0 0 0 3.578-2.211l.341-.684A1.99 1.99 0 0 1 39.854 33h.2a9.99 9.99 0 0 0 3.974 7zM42 32a8 8 0 1 1 8 8 8.01 8.01 0 0 1-8-8zm8-6a6 6 0 1 0 6 6 6.01 6.01 0 0 0-6-6zm0 10a4 4 0 1 1 0-8 4 4 0 1 1 0 8zM11 24a7 7 0 1 0 7 7 7.01 7.01 0 0 0-7-7zm0 12a5 5 0 1 1 5-5c-.003 2.76-2.24 4.997-5 5z"/>
        <circle cx="50" cy="30" r="1"/>
        <circle cx="50" cy="34" r="1"/>
        <circle cx="52" cy="32" r="1"/>
        <circle cx="48" cy="32" r="1"/>
        <circle cx="11" cy="28" r="1"/>
        <circle cx="11" cy="34" r="1"/>
        <circle cx="14" cy="31" r="1"/>
        <circle cx="8" cy="31" r="1"/>
        <path d="M31 18h7.131a2 2 0 0 0 1.669-3.109l-2.666-4A2 2 0 0 0 35.465 10H31a2 2 0 0 0-2 2v4a2 2 0 0 0 2 2zm0-6h4.465l2.666 4H31zm2 8h-2a1 1 0 1 0 0 2h2a1 1 0 1 0 0-2zm-7-2a1 1 0 0 0 1-1v-6a1 1 0 1 0-2 0v6a1 1 0 0 0 1 1zm-4 0a1 1 0 0 0 1-1v-4a1 1 0 1 0-2 0v4a1 1 0 0 0 1 1z"/>
    </g>
</svg>